# xmcd CD database file
#
# Track frame offsets:
#	187
#	11952
#	17740
#	28047
#	40332
#	46292
#	51210
#	58890
#	64282
#	69717
#	80462
#	85405
#	91712
#	99760
#	113095
#	119085
#	128655
#	142962
#	148702
#	152860
#	156597
#	162202
#	175560
#	179597
#	185225
#	193087
#	226140
#	232057
#	238267
#	244500
#	256185
#	265895
#
# Disc length: 3700 seconds
#
# Revision: 4
# Processed by: cddbd v1.5.2PL0 Copyright (c) Steve Scherf et al.
# Submitted via: CDex 1.51
#
DISCID=ca0e7220
DTITLE=Keith Jarrett - Goldberg Variations
DYEAR=1989
DGENRE=Classical
TTITLE0=Aria
TTITLE1=Variation 1 a 1 Clav.
TTITLE2=Variation 2 a 1 Clav.
TTITLE3=Variation 3 Canone all'Unisono. a 1 Clav.
TTITLE4=Variation 4 a 1 Clav.
TTITLE5=Variation 5 a 1 ovvero 2 Clav.
TTITLE6=Variation 6 Canone alla Seconda. a 1 Clav.
TTITLE7=Variation 7 a 1 ovvero 2 Clav. Al tempo di Giga.
TTITLE8=Variation 8 a 2 Clav.
TTITLE9=Variation 9 Canone alla Terza. a 1 Clav.
TTITLE10=Variation 10 Fughetta. a 1 Clav.
TTITLE11=Variation 11 a 2 Clav.
TTITLE12=Variation 12 Canone alla Quarta. (a 1 Clav.)
TTITLE13=Variation 13 a 2 Clav.
TTITLE14=Variation 14 a 2 Clav.
TTITLE15=Variation 15 Canone alla AQuinta. a 1 Clav. Andate
TTITLE16=Variation 16 Ouveture. a 1 Clav.
TTITLE17=Variation 17 a 2 Clav.
TTITLE18=Variation 18 Canone alla Sesta. a 1 clav.
TTITLE19=Variation 19 a 1 Clav.
TTITLE20=Variation 20 a 2 Clav.
TTITLE21=Variation 21 Canone alla Settima. (a 1 clav)
TTITLE22=Variation 22 a 1 Clav. Alla breve
TTITLE23=Variation 23 a2 Clav.
TTITLE24=Variation 24 Canone all Ottave. a 1 Clav.
TTITLE25=Variation 25 a 2 Clav. Adagio
TTITLE26=Variation 26 a 2 Clav
TTITLE27=Variation 27 Canone alla Nona. a 2 Clav.
TTITLE28=Variation 28 a 2 Clav.
TTITLE29=Variation 29 a 1 ovvero 2 Clav.
TTITLE30=Variation 30 Quodlibet a 1 Clav.
TTITLE31=Aria
EXTD=YEAR: 1989
EXTT0=
EXTT1=
EXTT2=
EXTT3=
EXTT4=
EXTT5=
EXTT6=
EXTT7=
EXTT8=
EXTT9=
EXTT10=
EXTT11=
EXTT12=
EXTT13=
EXTT14=
EXTT15=
EXTT16=
EXTT17=
EXTT18=
EXTT19=
EXTT20=
EXTT21=
EXTT22=
EXTT23=
EXTT24=
EXTT25=
EXTT26=
EXTT27=
EXTT28=
EXTT29=
EXTT30=
EXTT31=
PLAYORDER=
